REM DIRINDEX 1\2,1\3,1\4,1\5,1\6
REM DIRNAME folder01,folder02,folder03,folder04,folder05,folder06
TITLE ""
FILE "DISC4Track27.mp3" MP3
  TRACK 01 AUDIO
    TITLE "0:"
    INDEX 01 00:00:00
  TRACK 02 AUDIO
    TITLE "2:cjc129_3655"
    INDEX 01 00:03:14
  TRACK 03 AUDIO
    TITLE "0:"
    INDEX 01 00:07:31
  TRACK 04 AUDIO
    TITLE "3:cjc129_3656"
    INDEX 01 00:08:44
  TRACK 05 AUDIO
    TITLE "0:"
    INDEX 01 00:10:19
  TRACK 06 AUDIO
    TITLE "5:cjc129_3657"
    INDEX 01 00:10:49
  TRACK 07 AUDIO
    TITLE "0:"
    INDEX 01 00:13:20
  TRACK 08 AUDIO
    TITLE "4:cjc129_3658"
    INDEX 01 00:14:15
  TRACK 09 AUDIO
    TITLE "0:"
    INDEX 01 00:15:62
  TRACK 10 AUDIO
    TITLE "6:cjc129_3659"
    INDEX 01 00:16:18
  TRACK 11 AUDIO
    TITLE "0:"
    INDEX 01 00:20:53
  TRACK 12 AUDIO
    TITLE "3:cjc129_3660"
    INDEX 01 00:22:29
  TRACK 13 AUDIO
    TITLE "0:"
    INDEX 01 00:24:02
  TRACK 14 AUDIO
    TITLE "5:cjc129_3661"
    INDEX 01 00:24:33
  TRACK 15 AUDIO
    TITLE "0:"
    INDEX 01 00:28:51
  TRACK 16 AUDIO
    TITLE "4:cjc129_3662"
    INDEX 01 00:29:42
  TRACK 17 AUDIO
    TITLE "0:"
    INDEX 01 00:31:16
  TRACK 18 AUDIO
    TITLE "6:cjc129_3663"
    INDEX 01 00:31:47
  TRACK 19 AUDIO
    TITLE "0:"
    INDEX 01 00:36:01
  TRACK 20 AUDIO
    TITLE "3:cjc129_3664"
    INDEX 01 00:37:50
  TRACK 21 AUDIO
    TITLE "0:"
    INDEX 01 00:39:15
  TRACK 22 AUDIO
    TITLE "5:cjc129_3665"
    INDEX 01 00:39:49
  TRACK 23 AUDIO
    TITLE "0:"
    INDEX 01 00:43:74
  TRACK 24 AUDIO
    TITLE "4:cjc129_3666"
    INDEX 01 00:44:67
  TRACK 25 AUDIO
    TITLE "0:"
    INDEX 01 00:46:31
  TRACK 26 AUDIO
    TITLE "6:cjc129_3667"
    INDEX 01 00:46:64
  TRACK 27 AUDIO
    TITLE "0:"
    INDEX 01 00:50:29
  TRACK 28 AUDIO
    TITLE "3:cjc129_3668"
    INDEX 01 00:52:06
  TRACK 29 AUDIO
    TITLE "0:"
    INDEX 01 00:53:41
  TRACK 30 AUDIO
    TITLE "5:cjc129_3669"
    INDEX 01 00:53:74
  TRACK 31 AUDIO
    TITLE "0:"
    INDEX 01 00:58:32
  TRACK 32 AUDIO
    TITLE "4:cjc129_3670"
    INDEX 01 00:59:22
  TRACK 33 AUDIO
    TITLE "0:"
    INDEX 01 01:00:60
  TRACK 34 AUDIO
    TITLE "6:cjc129_3671"
    INDEX 01 01:01:15
  TRACK 35 AUDIO
    TITLE "0:"
    INDEX 01 01:05:13
  TRACK 36 AUDIO
    TITLE "3:cjc129_3672"
    INDEX 01 01:06:65
  TRACK 37 AUDIO
    TITLE "0:"
    INDEX 01 01:08:17
  TRACK 38 AUDIO
    TITLE "5:cjc129_3673"
    INDEX 01 01:08:54
  TRACK 39 AUDIO
    TITLE "0:"
    INDEX 01 01:11:09
  TRACK 40 AUDIO
    TITLE "4:cjc129_3674"
    INDEX 01 01:11:74
  TRACK 41 AUDIO
    TITLE "0:"
    INDEX 01 01:13:26
  TRACK 42 AUDIO
    TITLE "6:cjc129_3675"
    INDEX 01 01:13:61
  TRACK 43 AUDIO
    TITLE "0:"
    INDEX 01 01:17:57
  TRACK 44 AUDIO
    TITLE "3:cjc129_3676"
    INDEX 01 01:19:32
  TRACK 45 AUDIO
    TITLE "0:"
    INDEX 01 01:20:48
  TRACK 46 AUDIO
    TITLE "5:cjc129_3677"
    INDEX 01 01:21:06
  TRACK 47 AUDIO
    TITLE "0:"
    INDEX 01 01:29:39
  TRACK 48 AUDIO
    TITLE "4:cjc129_3678"
    INDEX 01 01:30:30
  TRACK 49 AUDIO
    TITLE "0:"
    INDEX 01 01:31:47
  TRACK 50 AUDIO
    TITLE "6:cjc129_3679"
    INDEX 01 01:32:04
  TRACK 51 AUDIO
    TITLE "0:"
    INDEX 01 01:36:29
  TRACK 52 AUDIO
    TITLE "3:cjc129_3680"
    INDEX 01 01:38:04
  TRACK 53 AUDIO
    TITLE "0:"
    INDEX 01 01:39:35
  TRACK 54 AUDIO
    TITLE "5:cjc129_3681"
    INDEX 01 01:39:68
  TRACK 55 AUDIO
    TITLE "0:"
    INDEX 01 01:42:10
  TRACK 56 AUDIO
    TITLE "4:cjc129_3682"
    INDEX 01 01:43:00
  TRACK 57 AUDIO
    TITLE "0:"
    INDEX 01 01:44:30
  TRACK 58 AUDIO
    TITLE "6:cjc129_3683"
    INDEX 01 01:44:64
  TRACK 59 AUDIO
    TITLE "0:"
    INDEX 01 01:48:28
  TRACK 60 AUDIO
    TITLE "3:cjc129_3684"
    INDEX 01 01:50:04
  TRACK 61 AUDIO
    TITLE "0:"
    INDEX 01 01:51:19
  TRACK 62 AUDIO
    TITLE "5:cjc129_3685"
    INDEX 01 01:51:52
  TRACK 63 AUDIO
    TITLE "0:"
    INDEX 01 01:58:32
  TRACK 64 AUDIO
    TITLE "4:cjc129_3686"
    INDEX 01 01:59:22
  TRACK 65 AUDIO
    TITLE "0:"
    INDEX 01 02:00:41
  TRACK 66 AUDIO
    TITLE "6:cjc129_3687"
    INDEX 01 02:00:71
  TRACK 67 AUDIO
    TITLE "0:"
    INDEX 01 02:05:25
